<svg width="296" height="494" xmlns="http://www.w3.org/2000/svg">

 <g>
  <title>background</title>
  <rect fill="none" id="canvas_background" height="496" width="298" y="-1" x="-1"/>
 </g>
 <g>
  <title>Layer 1</title>
  <g transform="rotate(-44.711097717285156 152.1107940673828,223.37742614746094) " stroke="null" id="svg_1">
   <g stroke="null" id="svg_2">
    <path stroke="null" id="svg_3" fill="#000000" d="m212.109386,28.88884c-72.491828,0 -131.468977,58.977149 -131.468977,131.468977c0,16.115964 2.863389,31.776854 8.517233,46.649155l-125.706492,125.715609c-1.79674,1.7975 -2.80641,4.233926 -2.80641,6.774433l0,68.788187c0,5.291457 4.289385,9.580843 9.580843,9.580843l56.68735,0c2.538228,0 4.972375,-1.00663 6.769115,-2.800332l19.103187,-19.074318c1.800539,-1.7975 2.811728,-4.236965 2.811728,-6.780511l0,-23.457149l23.42752,0c5.291457,0 9.580843,-4.289385 9.580843,-9.580843l0,-9.390153l9.390913,0c5.290698,0 9.580843,-4.289385 9.580843,-9.580843l0,-20.615792l20.615792,0c2.540507,0 4.976933,-1.009669 6.774433,-2.80641l30.48077,-30.48077c14.874579,5.659162 30.537749,8.52635 46.659791,8.52635c72.491828,0 131.468977,-58.977149 131.468977,-131.468977c0.00076,-72.490308 -58.97563,-131.467457 -131.467457,-131.467457zm0,243.774748c-15.682163,0 -30.849235,-3.167277 -45.08109,-9.415224c-3.680089,-1.615167 -7.824368,-0.726293 -10.538091,1.918296c-0.029629,0.02811 -0.058499,0.050901 -0.087368,0.08053l-32.177227,32.177227l-26.227852,0c-5.291457,0 -9.580843,4.289385 -9.580843,9.580843l0,20.615792l-9.390913,0c-5.290698,0 -9.580843,4.289385 -9.580843,9.580843l0,9.390153l-23.428279,0c-5.290698,0 -9.580843,4.289385 -9.580843,9.580843l0,29.06465l-13.487329,13.466057l-43.140763,0l0,-13.53899l117.10417,-117.10341c3.367844,-3.367844 3.367844,-8.827199 0,-12.194283s-8.82568,-3.368603 -12.195803,0l-104.908367,104.909127l0,-17.309486l127.40219,-127.411306c0.028869,-0.028869 0.050901,-0.05546 0.077492,-0.083569c2.645349,-2.711445 3.537261,-6.855723 1.922094,-10.538851c-6.241869,-14.231096 -9.405347,-29.397408 -9.405347,-45.074253c0,-61.926386 50.380905,-112.307291 112.307291,-112.307291s112.305772,50.380145 112.305772,112.307291c-0.001519,61.924867 -50.383184,112.305012 -112.308051,112.305012z"/>
   </g>
  </g>
  <g stroke="null" id="svg_4">
   <g stroke="null" id="svg_5">
    <path stroke="null" id="svg_6" fill="#000000" d="m148.749508,48.699596c-16.856831,0 -30.570358,13.713527 -30.570358,30.570358s13.713527,30.570358 30.570358,30.570358s30.570358,-13.713527 30.570358,-30.570358s-13.71288,-30.570358 -30.570358,-30.570358zm0,44.817801c-7.855994,0 -14.247442,-6.391449 -14.247442,-14.247442s6.391449,-14.247442 14.247442,-14.247442s14.247442,6.391449 14.247442,14.247442s-6.391449,14.247442 -14.247442,14.247442z"/>
   </g>
  </g>
  <g id="svg_7"/>
  <g id="svg_8"/>
  <g id="svg_9"/>
  <g id="svg_10"/>
  <g id="svg_11"/>
  <g id="svg_12"/>
  <g id="svg_13"/>
  <g id="svg_14"/>
  <g id="svg_15"/>
  <g id="svg_16"/>
  <g id="svg_17"/>
  <g id="svg_18"/>
  <g id="svg_19"/>
  <g id="svg_20"/>
  <g id="svg_21"/>
 </g>
</svg>